<?xml version="1.0" encoding="iso-8859-1"?>
<!-- Generator: Adobe Illustrator 19.0.0, SVG Export Plug-In . SVG Version: 6.00 Build 0)  -->
<svg version="1.1" id="Layer_1" xmlns="http://www.w3.org/2000/svg" xmlns:xlink="http://www.w3.org/1999/xlink" x="0px" y="0px"
	 viewBox="0 0 512 512" style="enable-background:new 0 0 512 512;" xml:space="preserve">
<g>
	<g>
		<path d="M256,0C114.623,0,0,114.614,0,256c0,141.377,114.623,256,256,256c141.386,0,256-114.623,256-256
			C512,114.61,397.386,0,256,0z M169.219,351.921c-11.066,0-20.07-9.003-20.07-20.07s9.003-20.07,20.07-20.07
			s20.07,9.003,20.07,20.07S180.285,351.921,169.219,351.921z M288.982,305.284H207.49c-8.432-12.106-22.433-20.065-38.271-20.065
			s-29.843,7.959-38.271,20.065h-14.382V169.542h172.415V305.284z M361.598,351.921c-11.066,0-20.07-9.003-20.07-20.07
			s9.003-20.07,20.07-20.07s20.07,9.003,20.07,20.07S372.664,351.921,361.598,351.921z M409.975,305.284L409.975,305.284h-10.101
			c-8.428-12.106-22.429-20.065-38.271-20.065s-29.843,7.959-38.271,20.065h-7.791V197.805h50.236l44.198,76.374V305.284z"/>
	</g>
</g>
<g>
</g>
<g>
</g>
<g>
</g>
<g>
</g>
<g>
</g>
<g>
</g>
<g>
</g>
<g>
</g>
<g>
</g>
<g>
</g>
<g>
</g>
<g>
</g>
<g>
</g>
<g>
</g>
<g>
</g>
</svg>
